<?xml version="1.0" standalone="no"?>
<!DOCTYPE svg PUBLIC "-//W3C//DTD SVG 20010904//EN"
 "http://www.w3.org/TR/2001/REC-SVG-20010904/DTD/svg10.dtd">
<svg version="1.0" xmlns="http://www.w3.org/2000/svg"
 width="225.000000pt" height="225.000000pt" viewBox="0 0 225.000000 225.000000"
 preserveAspectRatio="xMidYMid meet">

<g transform="translate(0.000000,225.000000) scale(0.100000,-0.100000)"
fill="#000000" stroke="none">
<path d="M1025 2210 c-97 -8 -225 -38 -225 -51 0 -6 -4 -7 -10 -4 -14 9 -147
-50 -233 -103 -102 -63 -209 -153 -202 -170 2 -7 1 -11 -4 -7 -15 9 -103 -98
-159 -192 -66 -110 -105 -212 -132 -344 -30 -145 -24 -359 14 -497 112 -403
427 -701 836 -788 111 -24 333 -24 440 0 324 72 602 284 749 571 392 766 -215
1662 -1074 1585z m-42 -591 c67 -39 142 -83 167 -97 133 -75 304 -174 339
-197 22 -14 42 -25 45 -25 13 0 288 -168 287 -176 0 -5 -101 -67 -223 -138
-123 -70 -297 -171 -388 -224 -283 -163 -352 -202 -362 -202 -6 0 -8 48 -6
120 1 66 0 120 -4 120 -3 0 -52 -27 -108 -60 -56 -33 -104 -60 -106 -60 -2 0
-4 200 -4 445 0 245 2 445 5 445 3 0 52 -27 108 -60 l102 -61 3 121 c1 70 7
120 13 120 5 0 64 -32 132 -71z"/>
<path d="M944 1456 c1 -36 5 -68 9 -72 4 -4 102 -62 217 -128 116 -67 210
-125 210 -131 0 -5 -98 -66 -217 -135 l-218 -125 -3 -67 c-2 -38 1 -68 5 -68
4 0 76 39 159 88 83 48 237 136 342 197 105 60 190 110 189 111 -1 1 -94 54
-207 119 -113 65 -257 148 -320 185 -119 70 -156 90 -163 90 -2 0 -3 -29 -3
-64z"/>
<path d="M720 1126 l0 -277 48 27 c26 15 53 32 60 37 9 7 12 62 12 212 l0 203
-37 23 c-21 13 -48 29 -60 37 l-23 14 0 -276z"/>
<path d="M945 1262 c-6 -6 -7 -282 -1 -282 2 0 60 33 128 73 l125 73 -123 71
c-68 39 -126 68 -129 65z"/>
</g>
</svg>
